<?xml version="1.0"?>
<svg width="640" height="480" xmlns="http://www.w3.org/2000/svg" xmlns:svg="http://www.w3.org/2000/svg">
 <!-- Created with SVG-edit - https://github.com/SVG-Edit/svgedit-->
 <defs>
  <linearGradient id="svg_15" x1="0" x2="1" y1="0" y2="1">
   <stop offset="0" stop-color="#ff7f00"/>
   <stop offset="1" stop-color="#000000" stop-opacity="0.996094"/>
  </linearGradient>
 </defs>
 <g class="layer" display="inline">
  <title>Layer 2</title>
  <path d="m316.868584,-54.624654c-162.926807,0 -295.001646,132.074839 -295.001646,295.001646c0,162.926807 132.074839,295.001646 295.001646,295.001646c162.926807,0 295.001646,-132.074839 295.001646,-295.001646c0,-162.926807 -132.074839,-295.001646 -295.001646,-295.001646zm232.120464,323.214959c0.020297,0.040595 0.081189,0.040595 0.101487,0.081189c-0.446542,3.795604 -1.096057,7.510019 -1.725275,11.24473c-0.30446,-0.243568 -0.69011,-0.507434 -0.953975,-0.730705c-2.090627,-1.826761 -5.155526,-2.59806 -6.454556,-2.334195c-3.186684,0.649515 4.648093,6.190691 5.419392,6.941693c0.182676,0.182676 0.629218,0.60892 1.258436,1.177246c-20.88597,107.819509 -115.877556,189.536629 -229.745675,189.536629c-83.685963,0 -157.020279,-44.248217 -198.426868,-110.437867c2.496574,-0.324758 4.871363,-0.324758 5.683257,-1.542598c1.035165,-1.562896 2.070329,-4.891661 3.612928,-6.718422c1.562896,-1.806464 3.349062,-4.648093 2.577763,-5.926825c-0.791597,-1.29903 2.050032,-6.982287 1.786167,-8.504589c-0.263866,-1.542598 -2.577763,-5.196121 1.29903,-8.26102s7.997155,-7.753587 8.26102,-9.012022c0.243568,-1.278733 3.36936,-6.718422 3.085197,-9.296185c-0.243568,-2.577763 -3.085197,-5.683257 -4.871363,-6.454556c-1.826761,-0.751002 -5.683257,-1.014867 -7.225856,-3.064899c-1.562896,-2.090627 -5.926825,-4.120362 -7.469424,-3.612928c-1.542598,0.507434 -4.140659,1.014867 -6.190691,-0.30446c-2.070329,-1.258436 -5.419392,-2.821331 -6.698125,-3.836199c-1.319328,-1.014867 -4.648093,-1.786167 -6.190691,-1.786167c-1.562896,0 -1.319328,-1.055462 -3.612928,2.050032c-2.313898,3.105494 0,4.140659 -4.140659,3.59263c-4.140659,-0.466839 0.507434,-0.730705 2.861926,-3.836199c2.2936,-3.085197 -0.263866,-4.911958 -2.861926,-4.120362c-2.557466,0.771299 -0.771299,2.334195 -4.891661,3.105494c-4.120362,0.730705 -4.120362,-1.826761 -1.542598,-2.334195s7.205558,-2.821331 7.205558,-3.856496c0,-1.035165 -0.507434,-3.876793 -2.577763,-3.876793s-1.562896,-2.557466 -4.648093,-5.906528c-1.867356,-2.050032 -3.97828,-3.328765 -6.068907,-4.140659c-1.826761,-11.752164 -3.044602,-23.687004 -3.044602,-35.946602c0,-57.725656 21.088944,-110.539354 55.838003,-151.377616c0.487136,-0.405947 0.974273,-0.69011 1.400517,-0.730705c1.704977,-0.182676 6.292178,-0.507434 10.351647,-1.197543c4.100064,-0.69011 8.484291,-3.267873 9.925403,-3.105494c1.400517,0.162379 4.891661,0.162379 3.775307,-0.852489c-1.136651,-1.156949 -2.719845,-3.552036 -5.074337,-3.552036s-0.162379,-3.775307 0.466839,-3.775307c0.60892,0 3.775307,0.507434 3.612928,2.232708c-0.142081,1.725275 0.953975,3.937685 4.079767,3.267873c3.166386,-0.69011 2.67925,-3.28817 2.070329,-3.957983c-0.649515,-0.69011 -1.116354,-2.415384 -1.725275,-3.612928c-0.629218,-1.217841 -0.466839,-2.760439 2.841629,-3.105494c3.28817,-0.324758 7.834776,1.359922 7.672397,-1.38022s0,-5.683257 0.933678,-7.225856c0.953975,-1.522301 3.004007,-2.577763 1.887653,-3.085197c-1.075759,-0.507434 -2.496574,0.69011 -3.612928,-1.887653c-1.096057,-2.577763 0.953975,-4.465416 2.192114,-5.500581c0.405947,-0.30446 1.359922,-1.217841 2.516871,-2.273303c38.17931,-27.036067 84.660236,-43.091268 134.916468,-43.091268c65.215377,0 124.26036,26.853391 166.722411,70.025848c-0.162379,0.446542 -0.202973,1.055462 -0.629218,1.136651c-1.562896,0.263866 -3.36936,1.278733 -3.633225,-1.035165c-0.263866,-2.313898 -0.263866,-6.718422 -2.070329,-4.120362c-1.806464,2.577763 -2.577763,2.577763 -2.577763,3.876793c0,1.278733 1.542598,2.577763 1.035165,4.891661c-0.527731,2.313898 -0.527731,3.876793 0.284163,3.876793c0.730705,0 2.557466,-2.334195 4.851066,-2.861926c2.354492,-0.507434 6.474854,-1.786167 6.738719,0.527731c0.263866,2.334195 2.821331,3.085197 0.263866,4.120362c-2.59806,1.035165 -5.419392,0.527731 -5.947123,-1.035165c-0.507434,-1.562896 -2.313898,-1.562896 -4.120362,-0.263866c-1.786167,1.278733 -5.66296,5.926825 -5.66296,5.926825s-6.210988,2.821331 -6.96199,2.313898c-0.811894,-0.507434 2.050032,-3.349062 4.120362,-4.627795c2.070329,-1.29903 3.612928,-4.140659 2.841629,-4.911958c-0.771299,-0.771299 -1.786167,-5.66296 -1.278733,-6.96199c0.507434,-1.278733 2.821331,-3.085197 0.263866,-4.384227c-2.577763,-1.278733 -4.404524,-2.841629 -6.454556,-3.612928s-4.384227,3.085197 -6.190691,4.140659c-1.806464,1.035165 -1.542598,2.313898 -3.876793,2.577763c-2.313898,0.263866 -3.836199,3.349062 0,5.155526c3.876793,1.806464 5.175824,3.085197 4.140659,4.140659c-1.035165,1.035165 -5.419392,-0.507434 -5.419392,-0.507434s-3.349062,-1.542598 -5.439689,-1.542598c-2.050032,0 -4.648093,-1.278733 -6.698125,-1.542598c-2.070329,-0.263866 -6.210988,-0.263866 -7.205558,0.771299c-1.035165,1.035165 -3.633225,4.120362 -5.683257,3.085197c-2.050032,-1.035165 -2.050032,-2.070329 -4.891661,-1.035165c-2.841629,1.035165 -5.66296,-0.771299 -7.205558,0.771299c-1.562896,1.542598 -0.263866,1.542598 -5.175824,0c-4.891661,-1.542598 -3.836199,1.035165 -8.504589,1.806464s-7.469424,-0.771299 -8.768454,0.771299c-1.29903,1.562896 -3.105494,4.404524 -3.856496,2.577763c-0.771299,-1.786167 2.557466,-4.891661 1.258436,-5.926825c-1.258436,-1.035165 -6.698125,-0.507434 -7.449126,0.263866c-0.791597,0.771299 -0.284163,3.612928 0.223271,4.648093c0.527731,1.014867 1.29903,5.155526 -0.223271,4.384227c-1.562896,-0.771299 -1.29903,-3.36936 -2.861926,-3.085197c-1.542598,0.263866 -3.349062,1.035165 -4.120362,1.562896c-0.771299,0.507434 -3.876793,0.507434 -4.648093,1.542598c-0.751002,1.035165 0.284163,3.876793 -1.035165,4.120362c-1.278733,0.263866 -2.313898,1.29903 -5.155526,-0.507434c-2.841629,-1.806464 -2.841629,-0.771299 -3.612928,-0.243568c-0.771299,0.507434 -4.384227,2.577763 -4.648093,0.243568c-0.263866,-2.313898 0.507434,-3.085197 -1.806464,-4.648093c-2.334195,-1.542598 -0.527731,-1.542598 2.577763,-0.507434c3.085197,1.014867 6.96199,1.522301 12.62495,-0.263866c5.683257,-1.806464 8.017452,-2.577763 5.683257,-3.612928c-2.334195,-1.014867 -4.648093,-2.050032 -8.240723,-2.577763c-3.633225,-0.507434 -8.524886,-0.507434 -14.208143,-2.577763c-5.66296,-2.070329 -6.96199,-2.841629 -9.275888,-3.349062c-2.334195,-0.527731 -16.501743,-2.841629 -22.976597,-1.806464c-6.434259,1.035165 -24.214735,5.683257 -25.270197,6.454556s-2.59806,3.856496 -5.926825,6.454556c-3.349062,2.577763 -9.539753,8.504589 -14.451711,9.539753c-4.891661,1.035165 -10.574918,5.155526 -10.574918,6.190691c0,1.035165 2.050032,4.911958 1.542598,5.683257c-0.507434,0.771299 1.014867,4.648093 3.876793,5.683257c2.821331,1.014867 7.733289,0.771299 7.976858,-0.791597c0.284163,-1.542598 4.140659,-4.891661 4.404524,-2.577763c0.263866,2.334195 2.841629,5.926825 2.313898,7.469424c-0.507434,1.562896 0,3.105494 1.826761,2.841629c1.786167,-0.243568 11.346217,-2.313898 11.346217,-2.313898s3.105494,-1.29903 2.577763,-3.36936c-0.527731,-2.050032 3.36936,-4.891661 4.120362,-5.66296c0.771299,-0.771299 3.612928,-3.876793 0.284163,-4.891661c-3.389657,-1.035165 -5.947123,-1.29903 -2.334195,-4.384227s5.926825,0 10.574918,-4.648093c4.648093,-4.648093 -1.035165,-5.926825 3.876793,-6.190691c4.891661,-0.263866 10.067484,-0.507434 9.012022,1.035165c-1.014867,1.542598 -6.941693,4.911958 -10.311052,6.454556c-3.36936,1.562896 -2.841629,4.384227 -1.542598,5.926825c1.278733,1.542598 1.826761,5.155526 4.140659,4.648093c2.2936,-0.507434 5.155526,-2.313898 7.712992,-2.050032c2.59806,0.243568 7.773884,-0.263866 8.524886,-0.263866c0.791597,0 4.384227,3.612928 2.313898,4.120362c-2.050032,0.507434 -4.648093,0.263866 -9.03232,0.507434c-4.36393,0.263866 -9.25559,0.263866 -9.25559,1.035165c0,0.791597 5.926825,2.577763 3.856496,3.876793c-2.070329,1.278733 -4.120362,-0.263866 -6.718422,-0.527731c-2.577763,-0.243568 -4.120362,3.36936 -4.891661,5.419392c-0.791597,2.070329 1.278733,5.683257 -2.577763,4.384227c-3.876793,-1.278733 -6.718422,-1.278733 -7.733289,-0.771299c-1.035165,0.507434 -4.120362,1.542598 -6.718422,2.313898c-2.557466,0.771299 -1.542598,-1.278733 -4.911958,-1.278733c-3.328765,0 -3.328765,0 -3.328765,0l-2.090627,0.263866c0,0 -2.050032,-1.278733 -2.313898,-3.349062c-0.263866,-2.070329 1.014867,-4.384227 -0.263866,-4.891661c-1.29903,-0.527731 -5.926825,0.243568 -6.698125,1.786167c-0.771299,1.542598 -1.562896,4.384227 -0.527731,5.683257c1.055462,1.278733 4.140659,3.856496 1.29903,3.085197c-2.841629,-0.771299 -6.434259,-1.035165 -8.504589,0.527731c-2.050032,1.542598 -5.66296,4.891661 -5.66296,4.891661s-6.454556,0.507434 -6.454556,2.070329c0,1.562896 0,3.612928 -2.313898,3.876793c-2.334195,0.263866 -5.439689,1.014867 -8.524886,1.542598c-3.105494,0.507434 -2.821331,1.786167 -6.434259,2.070329s-4.140659,1.806464 -0.771299,2.313898c3.349062,0.507434 8.484291,2.577763 8.748157,4.891661c0.284163,2.313898 -0.263866,4.911958 -1.542598,7.225856c-0.872786,1.60349 -6.190691,0.527731 -9.296185,0.527731c-3.085197,0 -9.25559,-1.035165 -11.853651,0c-2.577763,1.035165 -2.070329,6.190691 -1.29903,8.504589c0.791597,2.313898 -0.243568,3.612928 -1.278733,4.384227c-1.035165,0.771299 -1.319328,3.085197 0,4.140659c1.278733,1.035165 2.313898,3.349062 3.36936,3.612928c1.035165,0.263866 4.36393,-0.771299 5.66296,0.507434c1.29903,1.29903 2.577763,4.384227 3.349062,3.612928c0.791597,-0.771299 1.806464,-4.120362 3.105494,-3.36936c1.29903,0.791597 4.384227,-0.243568 6.718422,-0.507434s3.59263,-2.841629 5.926825,-4.140659c2.313898,-1.278733 1.014867,-1.278733 0.263866,-2.841629c-0.771299,-1.542598 2.313898,-3.349062 4.140659,-5.155526c1.786167,-1.806464 5.135229,-0.263866 5.926825,-2.334195c0.771299,-2.070329 1.035165,-5.66296 3.064899,-5.419392c2.090627,0.263866 4.932255,1.542598 6.718422,1.542598c1.806464,0 5.66296,-2.841629 6.738719,-3.349062c1.014867,-0.507434 4.891661,-0.263866 5.419392,2.070329c0.507434,2.313898 4.891661,5.155526 5.926825,5.66296c1.035165,0.507434 7.733289,2.577763 8.788751,3.349062c1.014867,0.771299 2.557466,3.105494 3.085197,5.155526c0.507434,2.070329 2.313898,2.070329 2.59806,0.263866c0.243568,-1.806464 -1.319328,-5.155526 0.507434,-4.911958c1.786167,0.263866 3.876793,-0.527731 3.876793,-0.527731s-4.932255,-3.349062 -6.718422,-4.120362c-1.786167,-0.771299 -5.175824,-2.313898 -6.718422,-4.891661c-1.542598,-2.577763 -5.419392,-3.105494 -5.155526,-5.66296c0.263866,-2.577763 3.876793,-1.035165 5.926825,1.035165c2.070329,2.070329 7.225856,4.891661 9.03232,6.698125c1.786167,1.806464 4.648093,2.577763 5.419392,4.911958c0.791597,2.313898 3.085197,4.891661 3.856496,5.926825c0.771299,1.035165 3.349062,6.718422 4.140659,7.997155c0.771299,1.278733 3.349062,-0.243568 4.648093,-1.278733c1.278733,-1.035165 3.633225,-1.542598 3.876793,-3.612928c0.263866,-2.070329 -3.105494,-3.612928 -4.120362,-4.384227c-1.035165,-0.771299 2.577763,-1.542598 3.876793,-2.577763c1.278733,-1.014867 3.59263,-2.841629 4.627795,-1.278733c1.035165,1.562896 0.527731,7.733289 1.035165,8.768454c0.507434,1.035165 5.66296,2.577763 6.718422,3.876793c1.014867,1.278733 5.419392,1.806464 6.170394,1.035165c0.791597,-0.771299 4.911958,0.527731 5.96742,0.771299c0.99457,0.263866 4.100064,-0.507434 6.170394,-1.014867c2.090627,-0.507434 4.140659,-2.070329 3.876793,1.278733c-0.263866,3.349062 -1.035165,8.504589 -3.633225,11.082352c-2.577763,2.577763 -1.542598,3.876793 -4.100064,3.876793c-1.217841,0 -2.2936,0 -3.166386,0.426244c-0.832191,-1.319328 -1.98914,-2.37479 -3.552036,-1.968843c-3.085197,0.771299 -6.982287,0.771299 -9.539753,3.856496c-2.59806,3.105494 -3.612928,3.349062 -4.140659,2.313898c-0.507434,-1.035165 7.489721,-5.419392 6.434259,-6.718422c-1.014867,-1.278733 -7.205558,-0.771299 -10.574918,-0.771299c-3.36936,0 -6.190691,-2.070329 -8.788751,-2.577763c-2.557466,-0.507434 -5.926825,2.577763 -8.484291,5.155526c-2.59806,2.577763 -4.384227,0.771299 -6.718422,0.771299c-2.334195,0 -6.718422,-3.349062 -6.718422,-3.349062s-4.384227,-1.806464 -6.190691,-1.806464c-1.786167,0 -5.419392,-3.349062 -6.454556,-3.349062c-1.014867,0 -3.856496,-2.334195 -1.786167,-3.36936c2.050032,-1.014867 4.100064,1.035165 2.050032,-4.648093c-2.050032,-5.66296 -6.698125,-4.384227 -8.504589,-3.612928c-1.786167,0.791597 -14.695279,0.507434 -15.730444,0.507434c-1.035165,0 -8.504589,2.577763 -10.818486,3.612928c-2.354492,1.035165 -6.454556,2.334195 -7.489721,2.841629c-1.035165,0.507434 -6.454556,-1.035165 -8.788751,0.263866c-3.064899,1.704977 -5.906528,4.384227 -6.698125,4.384227c-0.771299,0 -3.105494,1.806464 -4.648093,5.683257c-1.562896,3.856496 0.263866,7.205558 -2.59806,8.504589c-2.821331,1.278733 -7.997155,4.140659 -10.047187,6.190691c-2.070329,2.050032 -4.648093,9.296185 -7.205558,12.645247c-2.577763,3.349062 0,6.434259 0.507434,8.504589c0.507434,2.050032 2.313898,5.926825 -0.507434,9.560051c-2.841629,3.612928 -2.577763,5.399094 -3.876793,5.66296c-1.278733,0.263866 1.278733,1.278733 1.786167,3.856496c0.507434,2.59806 -2.313898,5.175824 2.59806,7.489721c4.891661,2.2936 7.205558,4.404524 8.484291,7.449126c1.29903,3.105494 7.753587,8.26102 7.753587,8.26102s4.648093,4.160956 6.982287,5.947123c2.313898,1.806464 3.085197,0.771299 3.59263,-1.014867c0.507434,-1.826761 3.612928,-2.110924 7.205558,-2.110924c3.612928,0 6.190691,0.811894 9.803619,0.284163c3.612928,-0.507434 7.225856,-2.861926 8.524886,-3.36936c1.278733,-0.507434 5.66296,-3.328765 8.991725,-1.278733c3.36936,2.090627 2.861926,4.891661 4.66839,6.738719c1.786167,1.786167 4.871363,0.751002 7.205558,-1.035165c2.313898,-1.826761 1.29903,-1.055462 4.120362,0.507434c2.841629,1.522301 4.140659,3.064899 1.562896,5.419392c-2.59806,2.2936 -1.035165,5.947123 -2.59806,9.539753c-1.542598,3.612928 -1.278733,4.120362 1.562896,5.642663c2.841629,1.542598 7.997155,11.122946 9.539753,12.949708c1.562896,1.786167 -0.507434,6.941693 1.29903,10.047187c1.806464,3.064899 3.612928,5.155526 1.562896,6.718422c-2.090627,1.522301 -5.683257,4.384227 -5.926825,9.539753s1.035165,8.748157 2.070329,10.574918s3.59263,6.718422 4.891661,8.504589c1.29903,1.806464 2.841629,6.190691 3.085197,9.03232c0.263866,2.841629 -0.487136,6.210988 0.791597,7.733289c1.29903,1.542598 2.070329,3.876793 4.384227,5.926825c2.334195,2.090627 3.085197,6.454556 3.085197,6.454556s0.791597,1.806464 1.035165,4.648093c0.243568,2.841629 0.507434,4.627795 3.085197,5.926825c2.557466,1.278733 4.36393,1.542598 5.683257,0.263866c1.278733,-1.278733 7.733289,-1.562896 11.082352,-1.278733c3.349062,0.263866 7.205558,-1.522301 10.574918,-3.856496s8.26102,-8.504589 10.067484,-10.311052c1.806464,-1.826761 5.926825,-5.175824 5.439689,-7.225856c-0.507434,-2.050032 -1.562896,-4.120362 0.487136,-5.155526c2.070329,-1.055462 6.982287,-3.085197 7.225856,-4.648093c0.263866,-1.562896 -1.826761,-8.017452 -2.334195,-9.275888c-0.487136,-1.29903 1.29903,-3.653523 3.349062,-6.210988c2.090627,-2.59806 8.545183,-4.384227 9.560051,-5.419392c1.035165,-1.075759 3.876793,-5.419392 4.404524,-8.788751c0.487136,-3.389657 -1.035165,-7.489721 0,-9.275888c1.014867,-1.826761 0.263866,-3.349062 -2.090627,-5.439689c-2.313898,-2.070329 -1.806464,-8.26102 -2.577763,-9.275888c-0.751002,-1.035165 -0.263866,-6.474854 1.278733,-7.002585c1.542598,-0.466839 4.911958,-5.66296 6.982287,-7.976858c2.070329,-2.313898 7.997155,-9.539753 10.838783,-10.067484c2.821331,-0.507434 7.205558,-4.648093 7.469424,-6.96199c0.263866,-2.334195 7.712992,-11.102649 7.997155,-12.888816c0.263866,-1.826761 3.36936,-8.524886 2.070329,-10.087782c-1.258436,-1.542598 -11.346217,2.334195 -12.62495,2.861926c-1.29903,0.507434 -4.891661,2.577763 -9.052617,2.2936c-4.100064,-0.263866 -2.313898,-3.59263 -2.577763,-5.155526c-0.243568,-1.542598 -4.627795,-7.469424 -5.66296,-7.733289c-1.035165,-0.243568 -4.120362,-3.36936 -5.419392,-6.434259c-1.278733,-3.105494 -3.085197,-6.96199 -5.155526,-9.296185c-2.070329,-2.313898 -3.349062,-7.712992 -5.439689,-11.346217c-2.050032,-3.612928 -3.836199,-8.26102 -5.66296,-11.610083c-0.426244,-0.832191 -0.913381,-1.60349 -1.359922,-2.37479c2.395087,-0.588623 5.865933,-1.664382 6.292178,-0.182676c0.487136,1.786167 3.349062,5.66296 3.856496,8.504589s3.349062,1.806464 3.612928,4.384227c0.284163,2.59806 2.841629,8.788751 3.856496,9.539753c1.055462,0.771299 5.683257,4.911958 6.454556,6.454556c0.771299,1.542598 1.806464,3.612928 2.577763,7.489721c0.771299,3.856496 1.542598,9.012022 3.633225,9.783321c2.070329,0.771299 9.012022,-1.29903 10.311052,-2.070329s9.783321,-4.911958 12.888816,-5.175824c3.105494,-0.243568 3.633225,-2.334195 7.469424,-3.085197c3.876793,-0.771299 6.718422,-3.59263 9.296185,-5.683257c2.577763,-2.050032 5.683257,-7.205558 6.698125,-9.012022c1.055462,-1.786167 3.633225,-3.085197 2.334195,-5.135229c-1.278733,-2.090627 -6.718422,-5.155526 -8.788751,-5.439689c-2.070329,-0.243568 -1.806464,-3.612928 -3.085197,-3.612928s-1.035165,1.786167 -3.612928,3.105494c-2.577763,1.278733 -5.175824,3.856496 -6.982287,3.349062s0.527731,-1.806464 -2.2936,-4.120362s-3.897091,-2.841629 -3.897091,-4.627795c0,-1.806464 -5.642663,-5.175824 -6.170394,-7.753587c-0.527731,-2.577763 3.856496,-6.190691 5.155526,-3.856496c1.278733,2.313898 2.334195,5.926825 5.66296,7.469424c3.349062,1.542598 6.454556,4.140659 8.017452,4.648093c1.542598,0.507434 5.419392,-2.841629 6.698125,-2.313898c1.278733,0.487136 3.876793,5.135229 6.210988,5.926825c2.2936,0.771299 10.047187,1.035165 11.346217,1.035165s6.698125,0.263866 7.733289,-1.278733c1.035165,-1.542598 1.806464,-1.542598 3.105494,-1.542598c1.258436,0 3.59263,4.648093 5.419392,5.155526c1.806464,0.507434 5.155526,0.263866 4.891661,3.633225c-0.243568,3.328765 1.542598,6.190691 3.349062,6.434259c1.826761,0.243568 5.947123,-3.876793 5.947123,-3.876793s0,6.454556 -0.243568,8.788751c-0.284163,2.2936 2.821331,10.838783 2.821331,10.838783s3.856496,7.976858 4.891661,9.783321s5.419392,7.205558 5.419392,9.539753c0,2.334195 0.507434,5.947123 2.090627,5.947123c1.542598,0 3.085197,-4.120362 4.871363,-6.718422c1.847059,-2.557466 2.354492,-6.190691 3.105494,-8.768454c0.771299,-2.577763 0.771299,-7.225856 0.771299,-9.012022c0,-1.826761 1.522301,-3.36936 5.175824,-4.911958c3.612928,-1.542598 6.170394,-5.926825 9.25559,-8.26102c3.105494,-2.334195 2.861926,-6.190691 9.052617,-6.190691c6.190691,0 5.642663,0 7.205558,-1.562896c1.542598,-1.542598 3.064899,-2.577763 3.856496,0.263866c0.771299,2.841629 5.155526,6.96199 5.926825,7.997155c0.771299,1.055462 2.313898,3.876793 2.090627,6.982287c-0.263866,3.085197 0.243568,6.698125 1.522301,6.698125s3.876793,-4.384227 3.876793,-4.384227s5.66296,-3.836199 5.419392,0.263866c-0.284163,4.120362 0.507434,8.504589 0.507434,11.062054c0,1.075759 0.852489,2.740142 1.786167,4.262443c-0.101487,1.197543 -0.081189,2.415384 -0.182676,3.612928c-1.847059,0.487136 -1.867356,4.018875 -0.872786,5.297608zm-143.177488,-108.103672c1.542598,1.014867 2.070329,2.577763 3.085197,4.120362c1.055462,1.542598 2.841629,1.014867 4.120362,2.313898c1.278733,1.29903 -3.612928,2.841629 -1.522301,4.384227c2.050032,1.562896 3.064899,7.733289 3.349062,9.296185c0.263866,1.542598 -5.66296,2.313898 -7.489721,2.070329c-1.806464,-0.263866 -7.185261,-2.070329 -9.03232,-2.577763c-1.806464,-0.527731 -2.821331,-6.96199 -0.507434,-6.718422c2.354492,0.263866 2.861926,-0.507434 5.419392,-2.821331c2.59806,-2.334195 -3.836199,-3.36936 -5.642663,-3.876793c-1.806464,-0.507434 -5.439689,-6.190691 -6.718422,-7.997155c-1.258436,-1.806464 -0.284163,-4.627795 2.861926,-6.718422c1.542598,-1.035165 5.66296,1.278733 7.733289,0c2.050032,-1.278733 4.120362,-2.841629 4.891661,-3.349062c0.791597,-0.507434 5.947123,0.771299 6.698125,2.313898c0.791597,1.542598 3.876793,3.876793 2.861926,4.648093c-1.055462,0.771299 -5.703555,1.542598 -7.225856,0c-1.522301,-1.562896 -5.175824,0.243568 -5.439689,3.085197c-0.284163,2.861926 1.035165,0.791597 2.557466,1.826761zm-71.182797,4.384227c-1.562896,-0.507434 0.507434,-3.612928 2.070329,-4.648093c1.522301,-1.035165 3.328765,-3.612928 4.891661,-6.190691c1.542598,-2.577763 3.612928,-2.841629 4.891661,-2.577763c1.278733,0.263866 4.120362,4.891661 4.891661,6.454556c0.771299,1.542598 3.349062,-0.527731 4.404524,-1.035165c1.014867,-0.507434 2.577763,-2.070329 2.841629,-3.349062s2.577763,-2.070329 5.155526,-2.070329s0.263866,2.070329 -1.542598,2.577763c-1.826761,0.507434 -0.771299,1.562896 2.2936,2.577763c3.105494,1.035165 5.947123,3.876793 9.316482,5.66296c3.349062,1.806464 3.856496,5.419392 1.786167,5.926825c-2.050032,0.507434 -8.240723,1.035165 -10.574918,0.771299c-2.313898,-0.263866 -5.155526,-2.577763 -8.504589,-3.105494c-3.349062,-0.507434 -7.489721,-0.263866 -8.788751,1.562896s-5.926825,1.014867 -8.017452,1.014867c-2.070329,0 -4.627795,2.577763 -5.135229,1.562896c0.020297,0.020297 1.562896,-4.607498 0.020297,-5.135229zm8.768454,-57.279114c1.278733,-3.612928 8.504589,0.771299 7.205558,2.577763c-1.278733,1.826761 -8.078344,-0.121784 -7.205558,-2.577763zm10.047187,185.233592c1.278733,2.070329 -2.841629,8.748157 -5.155526,8.26102c-2.2936,-0.548028 -1.542598,-6.454556 -0.771299,-7.753587c0.771299,-1.29903 5.257013,-1.623788 5.926825,-0.507434zm-93.631663,-119.957323c0.507434,-1.035165 -0.791597,-3.105494 -2.577763,-0.263866c-0.60892,0.99457 2.070329,1.29903 2.577763,0.263866zm154.746976,-94.159394c2.861926,1.542598 6.880801,2.171816 8.788751,0.263866c1.542598,-1.542598 0.263866,-4.140659 -1.014867,-4.384227c-1.29903,-0.263866 -2.110924,-2.334195 1.258436,-4.120362c3.349062,-1.806464 6.96199,-4.140659 10.838783,-4.648093c3.856496,-0.507434 12.62495,-0.771299 15.710147,0c3.085197,0.791597 7.753587,-3.36936 9.03232,-5.155526s-4.120362,-3.085197 -5.66296,-1.035165c-1.562896,2.070329 -9.012022,1.542598 -10.574918,1.035165c-1.542598,-0.507434 -13.92398,2.070329 -16.481446,2.070329c-2.59806,0 -3.633225,3.085197 -7.225856,4.648093c-3.633225,1.542598 -8.524886,3.876793 -10.33135,4.648093c-1.786167,0.771299 -3.59263,3.856496 -2.050032,4.384227c1.542598,0.507434 4.891661,0.751002 7.712992,2.2936zm-135.403604,94.159394c1.29903,-1.806464 -1.035165,-4.404524 -2.313898,-4.404524c-2.435682,0 -3.612928,3.876793 -2.090627,5.155526c1.562896,1.319328 3.105494,1.055462 4.404524,-0.751002zm11.610083,6.96199c1.29903,0.507434 2.313898,2.070329 3.349062,2.313898c1.055462,0.263866 4.404524,0 3.389657,-2.577763s-3.389657,-2.577763 -4.140659,-2.577763c-0.771299,0 -4.120362,-0.771299 -5.419392,0c-0.953975,0.568326 1.522301,2.334195 2.821331,2.841629zm-69.132765,-41.792238c2.050032,0.263866 4.404524,-1.278733 6.190691,-2.050032c1.786167,-0.771299 4.384227,-2.313898 4.384227,-4.648093c0,-2.313898 -0.507434,-4.384227 -1.562896,-5.419392c-1.035165,-1.035165 -2.841629,-1.29903 -4.384227,-1.035165c-2.334195,0.405947 -2.577763,2.841629 -4.120362,2.841629c-1.542598,0 -3.349062,0.507434 -2.841629,2.313898s1.562896,3.085197 0,3.856496c-1.542598,0.791597 0.243568,3.897091 2.334195,4.140659zm12.645247,-11.082352c2.577763,1.035165 7.997155,2.070329 5.926825,3.105494c-2.070329,1.035165 -5.683257,3.856496 -6.190691,5.419392s4.384227,3.105494 4.384227,3.105494s-1.562896,1.806464 -0.263866,2.313898c1.278733,0.507434 2.070329,-1.806464 4.120362,-1.806464c2.050032,0 6.170394,1.278733 8.240723,1.278733c2.090627,0 5.419392,-2.841629 5.155526,-4.648093c-0.263866,-1.806464 -2.841629,-4.648093 -5.155526,-5.683257c-2.2936,-1.035165 -4.891661,-5.683257 -6.434259,-6.718422c-1.542598,-1.035165 1.542598,-3.612928 -0.263866,-5.419392c-1.826761,-1.806464 -3.105494,-1.542598 -5.175824,-2.841629c-2.070329,-1.278733 -3.876793,0.263866 -5.155526,1.806464c-1.278733,1.542598 -2.841629,-0.263866 -4.404524,0.243568c-2.070329,0.710407 -1.278733,3.36936 -0.243568,4.648093c1.055462,1.319328 2.882223,4.160956 5.459986,5.196121zm259.765451,137.737799c-1.68468,0.751002 -3.105494,9.539753 0,10.574918c3.085197,1.055462 4.891661,-4.100064 3.876793,-5.419392c-1.055462,-1.258436 -1.562896,-6.190691 -3.876793,-5.155526zm-93.672258,66.291136c-3.227278,-0.913381 -3.59263,3.36936 -6.170394,6.210988c-2.59806,2.861926 -5.419392,5.155526 -6.434259,4.891661c-1.055462,-0.263866 -6.718422,1.806464 -4.911958,5.66296c1.806464,3.876793 1.542598,7.753587 -0.263866,9.580348c-1.806464,1.786167 1.542598,6.941693 1.055462,9.783321c-0.527731,2.821331 0.751002,4.648093 4.36393,4.648093s4.911958,-1.29903 6.454556,-4.648093c1.542598,-3.36936 1.786167,-6.718422 3.328765,-9.539753c1.562896,-2.861926 2.861926,-8.809049 3.633225,-10.351647c0.771299,-1.522301 2.313898,-6.413962 2.070329,-9.275888c-0.284163,-2.801034 -1.29903,-6.454556 -3.125791,-6.96199zm-197.351108,-236.707665c-1.400517,-1.217841 -4.648093,-2.070329 -6.210988,-2.232708c-1.542598,-0.162379 -3.085197,1.217841 -6.515448,1.217841c-3.409954,0 -5.66296,1.359922 -7.04318,0c-1.38022,-1.38022 -7.083774,-2.070329 -7.611505,-1.217841c-0.69011,1.156949 -2.050032,1.197543 -0.69011,3.612928c1.400517,2.395087 2.435682,3.775307 3.633225,3.612928s5.317905,-0.345055 5.845636,1.035165c0.507434,1.38022 1.907951,2.577763 4.810471,1.725275c2.943115,-0.852489 5.338202,-1.38022 6.008015,-2.415384c0.669812,-1.035165 5.338202,-1.197543 5.338202,-1.197543s3.795604,-2.943115 2.435682,-4.140659z" fill="#000000" id="svg_3" opacity="0.1" stroke="#000000" stroke-dasharray="null" stroke-linecap="null" stroke-linejoin="null" stroke-width="0"/>
 </g>
 <g class="layer" display="inline">
  <title>Layer 3</title>
  <path d="m168.654513,119.632189c-37.506092,0 -67.881716,30.375624 -67.881716,67.881716c0,37.480226 30.375624,67.873094 67.881716,67.873094c37.471604,0 67.864472,-30.392868 67.864472,-67.873094c0.008622,-37.506092 -30.375624,-67.881716 -67.864472,-67.881716zm0,118.519252c-27.970061,-0.068977 -50.577181,-22.676097 -50.646158,-50.628914c0.060355,-27.961439 22.676097,-50.577181 50.646158,-50.646158c27.952817,0.068977 50.559937,22.684719 50.620292,50.646158c-0.060355,27.952817 -22.667475,50.559937 -50.620292,50.628914zm0,-123.063094c4.768016,0 8.62209,-3.862696 8.62209,-8.630712l0,-41.82576c-0.017244,-4.768016 -3.862696,-8.62209 -8.62209,-8.62209c-4.768016,0 -8.630712,3.871319 -8.62209,8.639334l0,41.817138c0,4.750772 3.854074,8.62209 8.62209,8.62209zm27.702776,5.500894c1.077761,0.456971 2.198633,0.655279 3.293638,0.663901c3.397104,0 6.595899,-2.008947 7.975433,-5.328452l16.002599,-38.65283c1.810639,-4.405888 -0.267285,-9.441189 -4.664551,-11.26045c-4.405888,-1.819261 -9.449811,0.267285 -11.277694,4.664551l-15.993977,38.661453c-1.819261,4.397266 0.267285,9.441189 4.664551,11.251828zm23.495196,15.700826c1.681308,1.672686 3.888563,2.526272 6.095818,2.526272s4.41451,-0.844965 6.095818,-2.526272l29.573769,-29.599636c3.371237,-3.362615 3.362615,-8.820398 0,-12.200258c-3.379859,-3.362615 -8.837642,-3.362615 -12.200258,0.017244l-29.565147,29.582392c-3.371237,3.371237 -3.371237,8.82902 0,12.200258zm15.71807,23.486574c1.36229,3.319505 4.57833,5.31983 7.958189,5.31983c1.095005,0 2.215877,-0.215552 3.302261,-0.672523l38.626964,-16.011222c4.405888,-1.819261 6.492434,-6.871806 4.664551,-11.269072s-6.863184,-6.483812 -11.269072,-4.655929l-38.635586,16.011222c-4.397266,1.827883 -6.47519,6.880428 -4.647307,11.277694zm55.948743,19.063441l-41.82576,0.008622c-4.759394,0 -8.62209,3.862696 -8.604846,8.630712c0,4.768016 3.854074,8.613468 8.604846,8.613468l41.834382,-0.017244c4.768016,0 8.613468,-3.871319 8.613468,-8.62209c0,-4.768016 -3.862696,-8.630712 -8.62209,-8.613468zm-6.018219,47.662915l-38.644208,-15.985355c-4.41451,-1.827883 -9.458433,0.258663 -11.269072,4.664551c-1.819261,4.405888 0.267285,9.449811 4.664551,11.277694l38.644208,15.985355c1.086383,0.439727 2.207255,0.646657 3.302261,0.646657c3.388481,0 6.595899,-2.000325 7.975433,-5.31983c1.810639,-4.405888 -0.284529,-9.458433 -4.673173,-11.269072zm-53.405227,12.183013c-3.371237,-3.371237 -8.820398,-3.371237 -12.191636,0.008622c-3.371237,3.362615 -3.362615,8.811776 0,12.183013l29.608258,29.565147c1.681308,1.681308 3.879941,2.526272 6.087196,2.526272s4.423132,-0.844965 6.10444,-2.526272c3.371237,-3.379859 3.353993,-8.837642 0,-12.200258l-29.608258,-29.556525zm-24.409137,20.373999c-1.819261,-4.405888 -6.863184,-6.483812 -11.269072,-4.664551c-4.397266,1.827883 -6.483812,6.871806 -4.655929,11.277694l16.037088,38.626964c1.370912,3.319505 4.57833,5.31983 7.975433,5.31983c1.103628,0 2.224499,-0.20693 3.302261,-0.655279c4.405888,-1.819261 6.483812,-6.871806 4.655929,-11.286316l-16.04571,-38.618342zm-38.945982,0.888075c-4.768016,0 -8.62209,3.862696 -8.62209,8.62209l0.034488,41.82576c0,4.768016 3.871319,8.613468 8.62209,8.613468c4.768016,0 8.62209,-3.862696 8.604846,-8.62209l-0.025866,-41.834382c0,-4.74215 -3.871319,-8.613468 -8.613468,-8.604846zm-27.728642,-5.483649c-4.397266,-1.810639 -9.432567,0.267285 -11.26045,4.681795l-15.968111,38.65283c-1.810639,4.405888 0.284529,9.449811 4.681795,11.269072c1.077761,0.448349 2.190011,0.655279 3.293638,0.655279c3.379859,0 6.595899,-2.017569 7.966811,-5.337074l15.976733,-38.670075c1.819261,-4.397266 -0.284529,-9.432567 -4.690417,-11.251828zm-23.503818,-15.666338c-3.379859,-3.371237 -8.837642,-3.353993 -12.200258,0.017244l-29.539281,29.599636c-3.371237,3.379859 -3.353993,8.820398 0.017244,12.200258c1.681308,1.672686 3.879941,2.51765 6.087196,2.51765c2.215877,0 4.423132,-0.844965 6.10444,-2.526272l29.547903,-29.608258c3.353993,-3.371237 3.353993,-8.82902 -0.017244,-12.200258zm-15.726693,-23.460708c-1.836505,-4.388644 -6.871806,-6.47519 -11.269072,-4.655929l-38.618342,16.04571c-4.405888,1.827883 -6.483812,6.880428 -4.655929,11.277694c1.379534,3.319505 4.57833,5.311208 7.966811,5.311208c1.095005,0 2.224499,-0.20693 3.302261,-0.655279l38.618342,-16.04571c4.388644,-1.845127 6.47519,-6.88905 4.655929,-11.277694zm-5.56987,-27.694154c0,-4.768016 -3.854074,-8.613468 -8.62209,-8.613468l-41.82576,0.051733c-4.768016,0 -8.630712,3.862696 -8.613468,8.630712c0.008622,4.750772 3.871319,8.62209 8.62209,8.604846l41.834382,-0.051733c4.759394,0 8.62209,-3.879941 8.604846,-8.62209zm-44.455497,-38.997714l38.670075,15.950867c1.077761,0.456971 2.190011,0.655279 3.285016,0.655279c3.388481,0 6.604521,-2.000325 7.975433,-5.328452c1.827883,-4.405888 -0.275907,-9.458433 -4.690417,-11.26045l-38.65283,-15.950867c-4.405888,-1.810639 -9.441189,0.275907 -11.26045,4.673173c-1.827883,4.405888 0.284529,9.432567 4.673173,11.26045zm53.396605,-12.226124c1.681308,1.664063 3.871319,2.509028 6.078574,2.509028s4.423132,-0.844965 6.113062,-2.543517c3.371237,-3.353993 3.353993,-8.820398 -0.034488,-12.191636l-29.608258,-29.522037c-3.362615,-3.362615 -8.837642,-3.345371 -12.191636,0.025866c-3.371237,3.362615 -3.353993,8.82902 0.017244,12.191636l29.625502,29.530659zm24.374649,-20.408488c1.379534,3.310883 4.586952,5.302585 7.958189,5.302585c1.103628,0 2.224499,-0.215552 3.310883,-0.663901c4.397266,-1.827883 6.492434,-6.880428 4.655929,-11.269072l-16.071576,-38.618342c-1.827883,-4.397266 -6.880428,-6.47519 -11.277694,-4.647307c-4.397266,1.836505 -6.47519,6.88905 -4.647307,11.277694l16.071576,38.618342z" fill="#ff7f00" id="svg_18" opacity="0.05" stroke="#000000" stroke-dasharray="null" stroke-linecap="null" stroke-linejoin="null" stroke-width="0"/>
 </g>
 <g class="layer" display="inline">
  <title>Layer 4</title>
  <rect fill="url(#svg_15)" height="515" id="svg_9" opacity="0.25" stroke="#000000" stroke-dasharray="null" stroke-linecap="null" stroke-linejoin="null" stroke-width="0" width="701" x="-26.899994" y="-18.100006"/>
 </g>
</svg>